<svg width="30" height="30" viewBox="0 0 30 30" fill="none" xmlns="http://www.w3.org/2000/svg">
<g clip-path="url(#clip0_9_1265)">
<path d="M15.1498 4.8133L0.743247 13.8732C-0.247953 14.4964 -0.247953 15.5066 0.743247 16.1297L15.1498 25.1867C16.141 25.8099 16.8153 25.3746 16.6554 24.2145L16.1291 20.9859C15.9692 19.8264 16.7892 18.8863 17.9599 18.8863H27.8797C29.0504 18.8863 30 17.9373 30 16.7666V13.2376C30 12.0662 29.051 11.1173 27.8797 11.1173H17.9605C16.7897 11.1173 15.9698 10.1766 16.1297 9.01773L16.656 5.78548C16.8153 4.626 16.141 4.19016 15.1498 4.8133Z" fill="#E5E5E5"/>
</g>
<defs>
<clipPath id="clip0_9_1265">
<rect width="30" height="30" fill="white" transform="translate(0 30) rotate(-90)"/>
</clipPath>
</defs>
</svg>
