<svg width="35" height="31" viewBox="0 0 35 31" fill="none" xmlns="http://www.w3.org/2000/svg">
<path d="M25.8661 1.48591C21.5776 1.48591 18.0367 4.68569 17.5 8.82796C16.9633 4.68569 13.4224 1.48591 9.13388 1.48591C4.47442 1.48591 0.697205 5.26312 0.697205 9.92258C0.697205 14.582 6.29462 19.3717 8.81623 21.5363C11.172 23.5585 17.5 29.5141 17.5 29.5141C17.5 29.5141 23.828 23.5585 26.1838 21.5363C28.7054 19.3717 34.3028 14.582 34.3028 9.92258C34.3028 5.26312 30.5256 1.48591 25.8661 1.48591Z" fill="#BC252A"/>
<path d="M17.5 30.2113C17.3282 30.2113 17.1564 30.1481 17.0221 30.0218C16.959 29.9623 10.6788 24.054 8.36207 22.0653L8.33781 22.0444C5.63144 19.7215 0 14.8876 0 9.92258C0 4.88614 4.09744 0.788696 9.13388 0.788696C12.8262 0.788696 16.0744 3.01378 17.5 6.25358C18.9255 3.01378 22.1738 0.788696 25.8661 0.788696C30.9026 0.788696 35 4.88614 35 9.92258C35 14.8875 29.3686 19.7214 26.6622 22.0444L26.6379 22.0653C24.321 24.0541 18.041 29.9623 17.9779 30.0218C17.8436 30.1481 17.6718 30.2113 17.5 30.2113ZM9.13388 2.18312C4.86632 2.18312 1.39442 5.65502 1.39442 9.92258C1.39442 14.2468 6.8966 18.9697 9.24607 20.9864L9.27033 21.0073C11.2323 22.6914 15.9778 27.1298 17.5 28.5576C19.0222 27.1298 23.7677 22.6914 25.7297 21.0073L25.7539 20.9864C28.1034 18.9697 33.6056 14.2468 33.6056 9.92258C33.6056 5.65502 30.1337 2.18312 25.8661 2.18312C21.9883 2.18312 18.689 5.07829 18.1914 8.91755C18.1464 9.26504 17.8504 9.52517 17.5 9.52517C17.1496 9.52517 16.8536 9.26511 16.8086 8.91755C16.3111 5.07829 13.0117 2.18312 9.13388 2.18312Z" fill="#222222"/>
<path d="M17.5703 26.7266C17.3998 26.7266 17.229 26.6644 17.0946 26.5389C15.2167 24.7854 11.8328 21.6433 10.2682 20.3003L10.247 20.2821C9.98413 20.0564 9.68607 19.8005 9.36494 19.5196C9.07511 19.2661 9.04562 18.8256 9.29919 18.5359C9.55263 18.246 9.99313 18.2165 10.283 18.4701C10.5992 18.7467 10.8946 19.0003 11.1553 19.224L11.1765 19.2422C12.6809 20.5336 15.7427 23.3688 18.0463 25.5198C18.3277 25.7826 18.3428 26.2237 18.08 26.5052C17.9427 26.6522 17.7567 26.7266 17.5703 26.7266Z" fill="#222222"/>
<path d="M7.89822 17.9265C7.72322 17.9265 7.54815 17.8611 7.41268 17.7295C6.95175 17.2821 6.51565 16.8368 6.11642 16.4061C5.85469 16.1237 5.87142 15.6826 6.15386 15.4208C6.43623 15.1591 6.87736 15.1758 7.13916 15.4582C7.52179 15.871 7.94061 16.2986 8.38396 16.729C8.66027 16.9973 8.66682 17.4387 8.3986 17.715C8.26181 17.8557 8.08012 17.9265 7.89822 17.9265Z" fill="#222222"/>
</svg>
