<svg width="30" height="35" viewBox="0 0 30 35" fill="none" xmlns="http://www.w3.org/2000/svg">
<path d="M14.8876 29.7753C23.1099 29.7753 29.7753 23.1099 29.7753 14.8876C29.7753 6.66542 23.1099 0 14.8876 0C6.66542 0 0 6.66542 0 14.8876C0 23.1099 6.66542 29.7753 14.8876 29.7753Z" fill="#2A5918"/>
<path d="M25.3933 4.32584C31.1798 10.1124 31.1798 19.5506 25.3933 25.3933C19.6067 31.1798 10.1685 31.1798 4.32584 25.3933" fill="#245F0E"/>
<path d="M17.2472 27.7528L15.1124 28.7079L12.9214 27.7528L11.236 7.97753L15.1124 0.674156L18.9888 7.97753L17.2472 27.7528Z" fill="#B4B4B4"/>
<path d="M15.1124 0.674156L18.9888 7.97753L17.2472 27.7528L15.1124 28.7079" fill="#9A9A9A"/>
<path d="M17.1348 29.382H13.2022V33.8764H17.1348V29.382Z" fill="#A52528"/>
<path d="M13.2022 29.382H17.1348V33.8764" fill="#952013"/>
<path d="M19.4382 28.8202C19.4382 29.4382 18.9326 29.9438 18.3146 29.9438H11.9101C11.2921 29.9438 10.7865 29.4382 10.7865 28.8202C10.7865 28.2022 11.2921 27.6966 11.9101 27.6966H18.3146C18.9326 27.6966 19.4382 28.2022 19.4382 28.8202Z" fill="#34B515"/>
<path d="M19.4382 28.8202C19.4382 29.4382 18.9326 29.9438 18.3146 29.9438H11.9101C11.2921 29.9438 10.7865 29.4382 10.7865 28.8202C10.7865 28.2022 11.2921 27.6966 11.9101 27.6966H18.3146C18.9326 27.6966 19.4382 28.2022 19.4382 28.8202Z" fill="#D3A116"/>
<path d="M12.0786 27.6966H18.3146C18.9326 27.6966 19.4382 28.1461 19.4382 28.8202C19.4382 29.4382 18.9326 29.9438 18.3146 29.9438" fill="#D28828"/>
<path d="M12.0786 34.1573C12.0786 33.5955 12.6404 33.3146 13.0337 33.3146H17.1348C17.5281 33.3146 18.2584 33.4831 18.2584 34.1573C18.2584 34.8315 17.5843 35 17.1348 35H13.0337C12.6404 35 12.0786 34.8876 12.0786 34.1573Z" fill="#E6AF16"/>
<path d="M17.1348 35H13.0337C12.6404 35 12.0786 34.8876 12.0786 34.1573C12.0786 33.5955 12.6404 33.3146 13.0337 33.3146" fill="#E39228"/>
<path d="M17.1348 30.5056H13.2022V31.0674H17.1348V30.5056Z" fill="#FFC41D"/>
<path d="M17.1348 32.191H13.2022V32.7528H17.1348V32.191Z" fill="#FFC41D"/>
</svg>
