<svg width="31" height="35" viewBox="0 0 31 35" fill="none" xmlns="http://www.w3.org/2000/svg">
<path d="M14.7706 34.9353C4.93794 31.4114 0.0217398 21.3701 1.52889e-06 8.14997C-0.000818784 7.65307 0.328537 7.21188 0.799806 7.05438C5.74417 5.40227 9.5928 3.47447 14.5013 0.193012C14.7016 0.0591641 14.9352 -0.00502533 15.1674 0.000306702C15.382 0.00522858 15.5953 0.0694864 15.7801 0.193149C20.6854 3.47317 24.5363 5.40104 29.4876 7.05561C29.9536 7.21126 30.2808 7.64617 30.2838 8.13747C30.3634 21.3695 25.348 31.4095 15.51 34.9354C15.272 35.0216 15.0097 35.0215 14.7706 34.9353Z" fill="#9CA6AF"/>
<path d="M15.51 34.9353C25.348 31.4095 30.3635 21.3695 30.2838 8.1374C30.2808 7.64617 29.9535 7.2112 29.4877 7.05554C24.5363 5.40104 20.6854 3.4731 15.7801 0.193013C15.5953 0.0693513 15.3819 0.0051619 15.1674 0.000171661V34.9987C15.2836 34.996 15.3995 34.9754 15.51 34.9353Z" fill="#68737D"/>
<path d="M14.6629 29.9464C6.44371 25.9642 4.80903 16.5948 4.56602 11.3636C4.54448 10.8954 4.82311 10.4645 5.26007 10.2928C8.43522 9.04589 11.3912 7.55005 14.5634 5.58465C14.9171 5.36467 15.3644 5.36543 15.7181 5.5839C18.8902 7.55005 21.847 9.04589 25.0236 10.2928C25.4605 10.4644 25.7392 10.8954 25.7176 11.3643C25.4739 16.5948 23.8377 25.965 15.6185 29.9463C15.3148 30.093 14.9666 30.093 14.6629 29.9464Z" fill="#548C1F"/>
<path d="M25.0235 10.2928C21.8469 9.04596 18.8902 7.55012 15.718 5.58397C15.549 5.47958 15.3587 5.42558 15.1674 5.42086V30.0548C15.3214 30.051 15.4749 30.0156 15.6184 29.9464C23.8376 25.965 25.4737 16.5948 25.7176 11.3643C25.7391 10.8954 25.4605 10.4645 25.0235 10.2928Z" fill="#426C18"/>
</svg>
