<svg width="22" height="35" viewBox="0 0 22 35" fill="none" xmlns="http://www.w3.org/2000/svg">
<path d="M0 24.138C0 30.137 4.86315 35.0001 10.8621 35.0001C16.861 35.0001 21.7242 30.137 21.7242 24.138C21.7242 18.1035 18.707 13.2759 20.7313 9.05174C20.7313 9.05174 17.5 9.65521 15.6897 14.4828C15.6897 14.4828 9.65521 8.44826 12.1764 0C12.1764 0 6.03456 2.41377 6.67687 10.2586C7.22771 16.9856 6.03456 18.1035 6.03456 18.1035C6.03456 12.6725 1.78842 10.2586 1.78842 10.2586C3.01725 16.8966 0 18.707 0 24.138Z" fill="#D04E04"/>
<path d="M18.7026 26.7104C18.7026 31.2285 15.214 35.0855 10.6967 34.9984C6.44559 34.9165 3.28267 31.682 3.62071 27.4569C3.77157 25.5711 5.20473 22.5161 7.5431 19.4235L9.10203 20.3664C9.05165 16.5446 10.862 11.4656 10.862 11.4656C12.0512 16.817 18.7026 18.204 18.7026 26.7104Z" fill="#D97908"/>
<path d="M7.84479 22.9311C7.24131 26.5518 6.03442 27.87 6.03442 30.1725C6.03442 32.5863 8.19588 35.0001 10.862 35.0001C13.5475 35.0001 15.697 32.8059 15.6896 30.1205C15.6694 22.908 11.4655 19.3104 11.4655 19.3104C12.069 22.9312 10.2586 24.7414 10.2586 24.7414C9.50448 23.6104 7.84479 22.9311 7.84479 22.9311Z" fill="#CC9D43"/>
</svg>
