<svg width="31" height="35" viewBox="0 0 31 35" fill="none" xmlns="http://www.w3.org/2000/svg">
<path d="M14.7706 34.9353C4.93794 31.4114 0.0217398 21.3701 1.52889e-06 8.14997C-0.000818784 7.65307 0.328537 7.21188 0.799806 7.05438C5.74417 5.40227 9.5928 3.47447 14.5013 0.193012C14.7016 0.0591641 14.9352 -0.00502533 15.1674 0.000306702C15.382 0.00522858 15.5953 0.0694864 15.7801 0.193149C20.6854 3.47317 24.5363 5.40104 29.4876 7.05561C29.9536 7.21126 30.2808 7.64617 30.2838 8.13747C30.3634 21.3695 25.348 31.4095 15.51 34.9354C15.272 35.0216 15.0097 35.0215 14.7706 34.9353Z" fill="#9CA6AF"/>
<path d="M15.51 34.9353C25.348 31.4095 30.3634 21.3695 30.2837 8.1374C30.2808 7.64617 29.9535 7.2112 29.4876 7.05554C24.5363 5.40104 20.6854 3.4731 15.7801 0.193013C15.5952 0.0693513 15.3819 0.0051619 15.1674 0.000171661V34.9987C15.2836 34.996 15.3994 34.9754 15.51 34.9353Z" fill="#68737D"/>
<path d="M14.6629 29.9464C6.44368 25.9642 4.809 16.5948 4.56598 11.3636C4.54445 10.8954 4.82308 10.4645 5.26004 10.2928C8.43519 9.04589 11.3911 7.55005 14.5633 5.58465C14.917 5.36467 15.3644 5.36543 15.7181 5.5839C18.8902 7.55005 21.847 9.04589 25.0236 10.2928C25.4604 10.4644 25.7391 10.8954 25.7176 11.3643C25.4739 16.5948 23.8377 25.965 15.6185 29.9463C15.3147 30.093 14.9665 30.093 14.6629 29.9464Z" fill="#548C1F"/>
<path d="M25.0235 10.2928C21.8468 9.04596 18.8902 7.55012 15.718 5.58397C15.549 5.47958 15.3586 5.42558 15.1674 5.42086V30.0548C15.3214 30.051 15.4749 30.0156 15.6184 29.9464C23.8376 25.965 25.4737 16.5948 25.7175 11.3643C25.7391 10.8954 25.4604 10.4645 25.0235 10.2928Z" fill="#426C18"/>
<path d="M8 18.8621C8 22.8043 11.1958 26.0001 15.138 26.0001C19.0801 26.0001 22.2759 22.8043 22.2759 18.8621C22.2759 14.8966 20.2932 11.7242 21.6235 8.94829C21.6235 8.94829 19.5 9.34486 18.3104 12.5172C18.3104 12.5172 14.3449 8.55172 16.0017 3C16.0017 3 11.9656 4.58619 12.3877 9.74139C12.7496 14.162 11.9656 14.8966 11.9656 14.8966C11.9656 11.3276 9.17525 9.74139 9.17525 9.74139C9.98276 14.1035 8 15.2932 8 18.8621Z" fill="#D04E04"/>
<path d="M20.2902 20.5526C20.2902 23.5216 17.9977 26.0562 15.0293 25.9989C12.2357 25.9451 10.1572 23.8196 10.3793 21.0431C10.4784 19.8039 11.4202 17.7963 12.9569 15.764L13.9813 16.3836C13.9482 13.8722 15.1379 10.5345 15.1379 10.5345C15.9193 14.0512 20.2902 14.9627 20.2902 20.5526Z" fill="#D97908"/>
<path d="M13.1551 18.069C12.7586 20.4483 11.9655 21.3146 11.9655 22.8276C11.9655 24.4139 13.3858 26.0001 15.1379 26.0001C16.9026 26.0001 18.3152 24.5582 18.3103 22.7935C18.297 18.0539 15.5345 15.6897 15.5345 15.6897C15.931 18.0691 14.7414 19.2587 14.7414 19.2587C14.2458 18.5154 13.1551 18.069 13.1551 18.069Z" fill="#CC9D43"/>
</svg>
