<svg width="35" height="35" viewBox="0 0 35 35" fill="none" xmlns="http://www.w3.org/2000/svg">
<path d="M22.0917 13.6927C22.0917 13.6927 19.737 20.3298 18.6181 21.4885C17.4991 22.6473 15.6527 22.6795 14.4939 21.5605C13.3351 20.4415 13.3029 18.5951 14.4219 17.4363C15.5409 16.2776 22.0917 13.6927 22.0917 13.6927Z" fill="#006DFF" stroke="#222222" stroke-width="4" stroke-linejoin="round"/>
<path d="M28.3275 28.3275C31.0986 25.5566 32.8125 21.7284 32.8125 17.5C32.8125 9.04313 25.9569 2.1875 17.5 2.1875C9.04313 2.1875 2.1875 9.04313 2.1875 17.5C2.1875 21.7284 3.90141 25.5566 6.67243 28.3275" stroke="#222222" stroke-width="4" stroke-linecap="round" stroke-linejoin="round"/>
<path d="M17.5 2.91667V5.83333" stroke="#222222" stroke-width="4" stroke-linecap="round" stroke-linejoin="round"/>
<path d="M28.3248 8.12445L26.0581 9.9599" stroke="#222222" stroke-width="4" stroke-linecap="round" stroke-linejoin="round"/>
<path d="M31.006 19.8572L28.1641 19.2011" stroke="#222222" stroke-width="4" stroke-linecap="round" stroke-linejoin="round"/>
<path d="M3.99399 19.8572L6.8359 19.2011" stroke="#222222" stroke-width="4" stroke-linecap="round" stroke-linejoin="round"/>
<path d="M6.67526 8.12445L8.94193 9.9599" stroke="#222222" stroke-width="4" stroke-linecap="round" stroke-linejoin="round"/>
</svg>
